<svg width="160" height="48" viewBox="0 0 160 48" fill="none" xmlns="http://www.w3.org/2000/svg">
<rect x="1.5" y="1.5" width="157" height="45" rx="1.5" fill="white" stroke="#333333" stroke-width="3"/>
<path d="M28.5977 26.9336C28.4531 27.1055 28.2832 27.2637 28.0879 27.4082C27.8926 27.5527 27.6738 27.6777 27.4316 27.7832C27.1895 27.8887 26.9258 27.9707 26.6406 28.0293C26.3594 28.0879 26.0586 28.1172 25.7383 28.1172C25.2266 28.1172 24.7734 28.0176 24.3789 27.8184C23.9844 27.6191 23.6504 27.3477 23.377 27.0039C23.1074 26.6562 22.9004 26.248 22.7559 25.7793C22.6152 25.3105 22.543 24.8066 22.5391 24.2676V23.2129C22.5391 22.6738 22.6094 22.1699 22.75 21.7012C22.8906 21.2324 23.0918 20.8242 23.3535 20.4766C23.6191 20.1289 23.9434 19.8555 24.3262 19.6562C24.709 19.4531 25.1465 19.3516 25.6387 19.3516C26.0801 19.3516 26.4746 19.4121 26.8223 19.5332C27.1699 19.6543 27.4688 19.8301 27.7188 20.0605C27.9688 20.2871 28.166 20.5645 28.3105 20.8926C28.459 21.2207 28.5527 21.5879 28.5918 21.9941H27.209C27.1738 21.7637 27.1191 21.5566 27.0449 21.373C26.9707 21.1895 26.8711 21.0332 26.7461 20.9043C26.6211 20.7754 26.4688 20.6777 26.2891 20.6113C26.1133 20.541 25.9043 20.5059 25.6621 20.5059C25.3652 20.5059 25.1094 20.5801 24.8945 20.7285C24.6836 20.873 24.5078 21.0703 24.3672 21.3203C24.2266 21.5664 24.123 21.8535 24.0566 22.1816C23.9902 22.5059 23.9551 22.8457 23.9512 23.2012V24.2676C23.9551 24.623 23.9902 24.9629 24.0566 25.2871C24.127 25.6113 24.2344 25.8984 24.3789 26.1484C24.5273 26.3945 24.7168 26.5918 24.9473 26.7402C25.1777 26.8887 25.4551 26.9648 25.7793 26.9688C25.9121 26.9688 26.0488 26.9609 26.1895 26.9453C26.3301 26.9258 26.4629 26.8965 26.5879 26.8574C26.7168 26.8184 26.834 26.7695 26.9395 26.7109C27.0449 26.6484 27.1309 26.5723 27.1973 26.4824L27.209 24.7773H25.668V23.6816H28.5859L28.5977 26.9336ZM36.8781 24.1738H33.3684V26.8516H37.4758V28H31.9563V19.4688H37.4348V20.6289H33.3684V23.0371H36.8781V24.1738ZM46.9281 20.6289H44.309V28H42.9086V20.6289H40.307V19.4688H46.9281V20.6289ZM59.0887 19.4688H64.1629V20.6348H62.3172V26.8398H64.1629V28H59.0887V26.8398H60.8934V20.6348H59.0887V19.4688ZM73.4277 28H72.0098L69.2324 22.1289L69.2266 28H67.8027V19.4688H69.2266L71.9922 25.3223L72.0039 19.4688H73.4277V28ZM91.9633 20.6289H89.3441V28H87.9437V20.6289H85.3422V19.4688H91.9633V20.6289ZM100.713 24.2852C100.713 24.7891 100.648 25.2734 100.519 25.7383C100.39 26.1992 100.197 26.6074 99.9391 26.9629C99.6852 27.3145 99.3648 27.5957 98.9781 27.8066C98.5953 28.0137 98.1461 28.1172 97.6305 28.1172C97.1188 28.1172 96.6734 28.0117 96.2945 27.8008C95.9156 27.5898 95.5992 27.3086 95.3453 26.957C95.0953 26.6016 94.9059 26.1934 94.777 25.7324C94.652 25.2715 94.5895 24.7891 94.5895 24.2852V23.1953C94.5895 22.8594 94.6168 22.5312 94.6715 22.2109C94.7301 21.8906 94.8141 21.5898 94.9234 21.3086C95.0367 21.0234 95.1754 20.7617 95.3395 20.5234C95.5074 20.2812 95.7027 20.0742 95.9254 19.9023C96.152 19.7305 96.4059 19.5957 96.6871 19.498C96.9723 19.4004 97.2848 19.3516 97.6246 19.3516C98.1402 19.3516 98.5895 19.457 98.9723 19.668C99.359 19.8789 99.6813 20.1621 99.9391 20.5176C100.197 20.8691 100.39 21.2773 100.519 21.7422C100.648 22.207 100.713 22.6914 100.713 23.1953V24.2852ZM99.3004 23.1836C99.2965 22.8633 99.2672 22.5449 99.2125 22.2285C99.1578 21.9121 99.066 21.6309 98.9371 21.3848C98.8082 21.1348 98.6363 20.9336 98.4215 20.7812C98.2105 20.625 97.9449 20.5469 97.6246 20.5469C97.3082 20.5469 97.0445 20.625 96.8336 20.7812C96.6266 20.9336 96.4605 21.1348 96.3355 21.3848C96.2145 21.6348 96.1285 21.918 96.0777 22.2344C96.0309 22.5469 96.0055 22.8633 96.0016 23.1836V24.2852C96.0055 24.6055 96.0328 24.9238 96.0836 25.2402C96.1344 25.5527 96.2203 25.8359 96.3414 26.0898C96.4664 26.3398 96.6324 26.543 96.8395 26.6992C97.0504 26.8555 97.3141 26.9336 97.6305 26.9336C97.9508 26.9336 98.2164 26.8555 98.4273 26.6992C98.6422 26.543 98.8141 26.3398 98.943 26.0898C99.0719 25.8398 99.1617 25.5566 99.2125 25.2402C99.2672 24.9238 99.2965 24.6055 99.3004 24.2852V23.1836ZM109.485 19.4688L109.497 25.1816C109.493 25.6191 109.423 26.0195 109.286 26.3828C109.149 26.7422 108.958 27.0508 108.712 27.3086C108.466 27.5664 108.167 27.7656 107.815 27.9062C107.468 28.0469 107.077 28.1172 106.643 28.1172C106.221 28.1172 105.839 28.0469 105.495 27.9062C105.151 27.7656 104.856 27.5684 104.61 27.3145C104.364 27.0566 104.173 26.748 104.036 26.3887C103.899 26.0254 103.829 25.623 103.825 25.1816L103.837 19.4688H105.22L105.231 25.1816C105.235 25.4434 105.268 25.6836 105.331 25.9023C105.393 26.1211 105.483 26.3105 105.6 26.4707C105.718 26.627 105.862 26.75 106.034 26.8398C106.21 26.9258 106.413 26.9688 106.643 26.9688C106.878 26.9688 107.085 26.9258 107.264 26.8398C107.444 26.75 107.595 26.627 107.716 26.4707C107.837 26.3105 107.929 26.1211 107.991 25.9023C108.054 25.6836 108.087 25.4434 108.091 25.1816L108.102 19.4688H109.485ZM118.703 25.3809C118.664 25.791 118.566 26.166 118.41 26.5059C118.254 26.8418 118.047 27.1309 117.789 27.373C117.531 27.6113 117.227 27.7969 116.875 27.9297C116.527 28.0586 116.139 28.123 115.709 28.123C115.189 28.123 114.736 28.0234 114.35 27.8242C113.963 27.6211 113.641 27.3477 113.383 27.0039C113.125 26.6602 112.932 26.2578 112.803 25.7969C112.674 25.3359 112.607 24.8438 112.604 24.3203V23.1543C112.607 22.6348 112.676 22.1445 112.809 21.6836C112.941 21.2188 113.137 20.8145 113.395 20.4707C113.656 20.123 113.98 19.8496 114.367 19.6504C114.754 19.4473 115.203 19.3457 115.715 19.3457C116.164 19.3457 116.564 19.4121 116.916 19.5449C117.268 19.6777 117.568 19.8652 117.818 20.1074C118.068 20.3496 118.268 20.6445 118.416 20.9922C118.564 21.3398 118.66 21.7266 118.703 22.1523H117.297C117.273 21.9023 117.225 21.6758 117.15 21.4727C117.08 21.2656 116.982 21.0898 116.857 20.9453C116.732 20.7969 116.574 20.6836 116.383 20.6055C116.195 20.5273 115.973 20.4883 115.715 20.4883C115.398 20.4883 115.133 20.5605 114.918 20.7051C114.703 20.8496 114.529 21.0449 114.396 21.291C114.264 21.5332 114.168 21.8145 114.109 22.1348C114.055 22.4551 114.027 22.791 114.027 23.1426V24.3203C114.027 24.6875 114.055 25.0332 114.109 25.3574C114.168 25.6777 114.262 25.959 114.391 26.2012C114.52 26.4434 114.691 26.6348 114.906 26.7754C115.121 26.916 115.389 26.9863 115.709 26.9863C116.201 26.9863 116.576 26.8477 116.834 26.5703C117.092 26.2891 117.244 25.8926 117.291 25.3809H118.703ZM127.476 28H126.105V24.1914H123.204V28H121.839V19.4688H123.204V23.0371H126.105V19.4688H127.476V28ZM134.28 25.1113H132.955L132.909 19.4688H134.327L134.28 25.1113ZM132.797 27.3027C132.797 27.0762 132.868 26.8887 133.008 26.7402C133.153 26.5879 133.358 26.5117 133.623 26.5117C133.889 26.5117 134.094 26.5879 134.239 26.7402C134.383 26.8887 134.455 27.0762 134.455 27.3027C134.455 27.5254 134.383 27.7109 134.239 27.8594C134.094 28.0039 133.889 28.0762 133.623 28.0762C133.358 28.0762 133.153 28.0039 133.008 27.8594C132.868 27.7109 132.797 27.5254 132.797 27.3027Z" fill="#333333"/>
</svg>
