<svg width="48" height="19" viewBox="0 0 48 19" fill="none" xmlns="http://www.w3.org/2000/svg">
<path d="M27.2232 12.0803C27.0262 12.0803 26.8455 12.0381 26.6813 11.9536C26.5171 11.8692 26.388 11.7519 26.2942 11.6017C26.2004 11.4516 26.1534 11.278 26.1534 11.0809C26.1534 10.8885 26.2004 10.7196 26.2942 10.5742C26.388 10.4334 26.51 10.3184 26.6602 10.2293C26.815 10.1355 26.9769 10.0768 27.1458 10.0533C27.127 10.0346 27.0965 10.0088 27.0543 9.97593C27.0121 9.93839 26.9441 9.87974 26.8502 9.79998L26.442 9.46919C26.3012 9.72256 26.137 9.93839 25.9493 10.1167C25.7617 10.2903 25.5505 10.4217 25.3159 10.5108C25.0813 10.6 24.8186 10.6445 24.5277 10.6445C24.1711 10.6445 23.859 10.5765 23.5916 10.4404C23.3288 10.2997 23.1224 10.1073 22.9722 9.86332C22.8221 9.61464 22.747 9.32608 22.747 8.99764C22.747 8.7818 22.7916 8.57066 22.8807 8.36421C22.9699 8.15776 23.0989 7.97008 23.2678 7.80117C23.4414 7.62756 23.6526 7.4868 23.9013 7.37888C23.8309 7.31319 23.7605 7.23812 23.6901 7.15367C23.6197 7.06452 23.5611 6.96833 23.5142 6.8651C23.4719 6.76188 23.4508 6.65396 23.4508 6.54135C23.4508 6.36306 23.4977 6.19883 23.5916 6.04869C23.6854 5.89385 23.8121 5.77186 23.9716 5.68271C24.1359 5.58887 24.3212 5.54195 24.5277 5.54195C24.7435 5.54195 24.9288 5.58418 25.0837 5.66863C25.2432 5.75309 25.3675 5.87039 25.4567 6.02054C25.5458 6.16599 25.5904 6.33725 25.5904 6.53432C25.5904 6.73607 25.5271 6.91906 25.4004 7.08328C25.2784 7.24281 25.1071 7.37419 24.8866 7.47742L26.2238 8.56832L26.259 8.50497C26.3716 8.24691 26.4749 8.03577 26.5687 7.87155C26.6625 7.70263 26.7587 7.56891 26.8573 7.47038C26.9558 7.37185 27.0684 7.30381 27.1951 7.26627C27.3218 7.22405 27.4719 7.20293 27.6455 7.20293H27.9904V7.71671H27.6737C27.5564 7.71671 27.4578 7.73313 27.3781 7.76598C27.303 7.79882 27.2326 7.85747 27.1669 7.94193C27.1012 8.02639 27.0332 8.14369 26.9628 8.29383C26.8924 8.44398 26.8056 8.63401 26.7024 8.86392L26.6743 8.9343L27.0262 9.21582C27.3452 9.4645 27.5986 9.68972 27.7863 9.89147C27.974 10.0885 28.11 10.2762 28.1945 10.4545C28.2789 10.6328 28.3212 10.8158 28.3212 11.0035C28.3212 11.2052 28.2743 11.3882 28.1804 11.5525C28.0913 11.7167 27.9646 11.8457 27.8004 11.9396C27.6361 12.0334 27.4438 12.0803 27.2232 12.0803ZM24.5699 10.0674C24.7763 10.0674 24.9617 10.0346 25.1259 9.96889C25.2948 9.89851 25.4496 9.79294 25.5904 9.65218C25.7312 9.50673 25.8649 9.32139 25.9916 9.09617L24.3165 7.72375C24.1241 7.80821 23.9576 7.91378 23.8168 8.04046C23.6807 8.16715 23.5775 8.30556 23.5071 8.45571C23.4368 8.60585 23.4016 8.76773 23.4016 8.94133C23.4016 9.14778 23.4508 9.33781 23.5494 9.51142C23.6479 9.68033 23.784 9.8164 23.9576 9.91963C24.1359 10.0182 24.34 10.0674 24.5699 10.0674ZM27.2303 11.5665C27.3757 11.5665 27.4954 11.5149 27.5892 11.4117C27.6877 11.3132 27.737 11.1794 27.737 11.0105C27.737 10.9214 27.7206 10.8299 27.6877 10.736C27.6549 10.6422 27.5962 10.5531 27.5118 10.4686C27.3663 10.478 27.235 10.5085 27.1177 10.5601C27.0004 10.6117 26.9065 10.6821 26.8361 10.7712C26.7705 10.8651 26.7376 10.9753 26.7376 11.102C26.7376 11.2381 26.7845 11.3484 26.8784 11.4328C26.9722 11.522 27.0895 11.5665 27.2303 11.5665ZM24.4784 7.13959C24.5769 7.09267 24.6661 7.03871 24.7458 6.97771C24.8256 6.91672 24.8889 6.84868 24.9359 6.77361C24.9828 6.69854 25.0062 6.61643 25.0062 6.52728C25.0062 6.40059 24.9617 6.29268 24.8725 6.20353C24.7881 6.10969 24.6684 6.06277 24.5136 6.06277C24.415 6.06277 24.3282 6.08623 24.2532 6.13315C24.1828 6.17537 24.1288 6.23168 24.0913 6.30206C24.0538 6.37244 24.035 6.44751 24.035 6.52728C24.035 6.61643 24.0561 6.69854 24.0983 6.77361C24.1453 6.84399 24.2039 6.90968 24.2743 6.97068C24.3447 7.03167 24.4127 7.08798 24.4784 7.13959Z" fill="#333333"/>
<path d="M33.3805 4.06912V14.0266C33.3805 16.2056 35.2048 18.0298 37.4091 18.0298C39.5881 18.0298 41.4124 16.2056 41.4124 14.0266V13.6972H42.7299C44.9342 13.6972 46.7585 11.8729 46.7585 9.69394C46.7585 9.11119 46.6318 8.55377 46.4544 8.12304C45.6183 8.42709 44.7569 8.5031 43.8701 8.37641C43.6674 8.37641 43.6674 8.12304 43.8701 8.04703C44.3008 8.04703 44.7569 7.99636 45.1116 7.92035C46.8092 7.4136 48 5.79203 48 4.04378C48 1.83946 46.2011 0.0405273 43.9968 0.0405273H37.3331C34.7741 0.0405273 33.3805 1.48474 33.3805 4.06912Z" fill="#333333"/>
<path d="M17.9893 14.3053V4.09445C17.9893 1.89013 16.5704 0.0405273 13.91 0.0405273C12.0351 0.0405273 10.3882 1.4594 10.0081 3.18232L11.503 5.36131C11.579 5.51333 11.351 5.66535 11.275 5.51333L7.14504 1.4594C6.38493 0.699291 5.2701 0.0405273 4.05393 0.0405273C1.82427 0.0405273 0 1.89013 0 4.09445V14.2293C0 16.5096 1.82427 18.2832 4.05393 18.2832C5.9542 18.2832 7.60111 16.9657 7.98117 15.2174L6.53695 12.9878C6.46094 12.8104 6.68898 12.5824 6.76499 12.7344L11.123 17.1177C11.9084 17.9031 12.9472 18.2832 13.986 18.2832C16.1144 18.2832 17.9893 16.8897 17.9893 14.3053Z" fill="#333333"/>
</svg>
