<svg width="24" height="24" viewBox="0 0 24 24" fill="none" xmlns="http://www.w3.org/2000/svg">
<path d="M11.7441 4.26984L14.4285 1.58546C16.3411 -0.528487 19.663 -0.528487 21.6763 1.58546C23.7232 3.6323 23.7232 7.02132 21.6763 9.13527L19.1262 11.8196L21.9783 14.8396C23.9916 16.9871 23.9916 20.3761 21.9783 22.3894C19.9315 24.5369 16.7102 24.5369 14.6969 22.3894L11.7441 19.3695L8.79132 22.3894C6.77804 24.5369 3.55679 24.5369 1.50995 22.3894C-0.50333 20.3761 -0.50333 16.9871 1.50995 14.8396L4.3621 11.8196L1.81194 9.13527C-0.234894 7.02132 -0.234894 3.6323 1.81194 1.58546C3.82523 -0.528487 7.04648 -0.528487 9.05976 1.58546L11.7441 4.26984Z" fill="#333333"/>
</svg>
